<?xml version="1.0" encoding="UTF-8" standalone="no"?>
<!-- Created with Inkscape (http://www.inkscape.org/) -->

<svg
   xmlns:dc="http://purl.org/dc/elements/1.1/"
   xmlns:cc="http://creativecommons.org/ns#"
   xmlns:rdf="http://www.w3.org/1999/02/22-rdf-syntax-ns#"
   xmlns:svg="http://www.w3.org/2000/svg"
   xmlns="http://www.w3.org/2000/svg"
   xmlns:sodipodi="http://sodipodi.sourceforge.net/DTD/sodipodi-0.dtd"
   xmlns:inkscape="http://www.inkscape.org/namespaces/inkscape"
   id="svg2816"
   version="1.1"
   inkscape:version="0.47 r22583"
   width="700"
   height="700"
   sodipodi:docname="VWN_SDK.svg">
  <metadata
     id="metadata2822">
    <rdf:RDF>
      <cc:Work
         rdf:about="">
        <dc:format>image/svg+xml</dc:format>
        <dc:type
           rdf:resource="http://purl.org/dc/dcmitype/StillImage" />
        <dc:title />
      </cc:Work>
    </rdf:RDF>
  </metadata>
  <defs
     id="defs2820">
    <inkscape:perspective
       sodipodi:type="inkscape:persp3d"
       inkscape:vp_x="0 : 0.5 : 1"
       inkscape:vp_y="0 : 1000 : 0"
       inkscape:vp_z="1 : 0.5 : 1"
       inkscape:persp3d-origin="0.5 : 0.33333333 : 1"
       id="perspective2824" />
    <inkscape:perspective
       sodipodi:type="inkscape:persp3d"
       inkscape:vp_x="0 : 0.5 : 1"
       inkscape:vp_y="0 : 1000 : 0"
       inkscape:vp_z="1 : 0.5 : 1"
       inkscape:persp3d-origin="0.5 : 0.33333333 : 1"
       id="perspective3897" />
    <inkscape:perspective
       sodipodi:type="inkscape:persp3d"
       inkscape:vp_x="0 : 0.5 : 1"
       inkscape:vp_y="0 : 1000 : 0"
       inkscape:vp_z="1 : 0.5 : 1"
       inkscape:persp3d-origin="0.5 : 0.33333333 : 1"
       id="perspective3068" />
    <inkscape:perspective
       id="perspective254"
       inkscape:persp3d-origin="315.84201 : 68.666667 : 1"
       inkscape:vp_z="631.68402 : 103 : 1"
       inkscape:vp_y="0 : 1000 : 0"
       inkscape:vp_x="0 : 103 : 1"
       sodipodi:type="inkscape:persp3d" />
  </defs>
  <sodipodi:namedview
     pagecolor="#ffffff"
     bordercolor="#666666"
     borderopacity="1"
     objecttolerance="10"
     gridtolerance="10"
     guidetolerance="10"
     inkscape:pageopacity="0"
     inkscape:pageshadow="2"
     inkscape:window-width="1280"
     inkscape:window-height="962"
     id="namedview2818"
     showgrid="false"
     inkscape:zoom="0.7375"
     inkscape:cx="367.69596"
     inkscape:cy="320"
     inkscape:window-x="-8"
     inkscape:window-y="-8"
     inkscape:window-maximized="1"
     inkscape:current-layer="layer3" />
  <g
     id="layer2"
     inkscape:label="bg"
     transform="translate(718.64407,442.47457)" />
  <path
     id="path31_1_"
     d="m 1329.1591,111.24874 v 10.862 h -1.905 v -10.862 h -3.461 v -1.703 h 8.827 v 1.703 h -3.461 l 0,0 z"
     style="fill:#ffffff;fill-opacity:1" />
  <path
     id="path33_1_"
     d="m 1343.9621,122.11074 v -8.401 l -2.901,6.122 h -1.409 l -2.968,-6.122 v 8.401 h -1.905 v -12.565 h 1.905 l 3.672,7.817 3.606,-7.817 h 1.902 v 12.565 h -1.902 l 0,0 z"
     style="fill:#ffffff;fill-opacity:1" />
  <g
     inkscape:groupmode="layer"
     id="layer1"
     inkscape:label="bg">
    <rect
       style="fill:#191919;fill-opacity:1;fill-rule:nonzero;stroke:none"
       id="rect3184"
       width="700"
       height="700"
       x="0"
       y="-1.8984814e-14" />
  </g>
  <g
     inkscape:groupmode="layer"
     id="layer3"
     inkscape:label="fg">
    <path
       id="path17_1_"
       d="m 618.30499,93.861 c -5.25,-2.153 -10.104,-2.405 -16.001,-2.33 L 502.345,92.079 C 481.72,91.03 461.384,96.082 443.81,106.2 l 0.018,0.021 c -3.143,1.713 -5.283,5.054 -5.283,8.885 0,5.583 4.531,10.11 10.111,10.11 2.912,0 5.525,-1.238 7.373,-3.206 21.977,-11.779 48.838,-14.044 73.646,-3.855 44.06599,18.088 65.19899,68.66 47.10699,112.723 -4.853,11.815 -12.059,21.966 -20.834,30.174 l 0.078,0.109 c -3.005,1.751 -5.031,5.003 -5.031,8.733 0,5.582 4.534,10.106 10.117,10.106 3.59,0 6.744,-1.884 8.538,-4.719 10.691,-10.053 19.455,-22.478 25.385,-36.917 0.409,-0.986 41.362,-100.741 41.468,-101.007 6.993,-17.025 -1.171,-36.507 -18.198,-43.496 z"
       style="fill:#f79b1d" />
    <g
       id="g2831">
      <path
         style="fill:#ffffff;fill-opacity:1"
         d="m 82.83,211.44 c 0.161,10.025 8.573,14.069 17.627,14.069 6.628,0 15.037,-2.587 15.037,-10.678 0,-6.95 -9.541,-9.381 -26.036,-12.934 -13.262,-2.914 -26.518,-7.603 -26.518,-22.318 0,-21.344 18.435,-26.842 36.384,-26.842 18.275,0 35.091,6.143 36.871,26.678 h -21.83 c -0.646,-8.89 -7.44,-11.317 -15.684,-11.317 -5.178,0 -12.778,0.97 -12.778,7.762 0,8.247 12.939,9.377 26.034,12.453 13.424,3.069 26.523,7.923 26.523,23.449 0,21.992 -19.082,29.104 -38.164,29.104 -19.403,0 -38.321,-7.275 -39.296,-29.43 h 21.83 v 0.004 z"
         id="path19_1_" />
      <path
         style="fill:#ffffff;fill-opacity:1"
         d="m 186.001,152.738 c 26.361,0 43.338,17.465 43.338,44.146 0,26.521 -16.977,43.983 -43.338,43.983 -26.198,0 -43.178,-17.463 -43.178,-43.983 0,-26.681 16.98,-44.146 43.178,-44.146 z m 0,70.826 c 15.684,0 20.373,-13.421 20.373,-26.681 0,-13.423 -4.689,-26.844 -20.373,-26.844 -15.526,0 -20.214,13.421 -20.214,26.844 0,13.263 4.688,26.681 20.214,26.681 z"
         id="path21_1_" />
      <path
         style="fill:#ffffff;fill-opacity:1"
         d="m 313.306,238.606 h -21.83 V 226.96 h -0.486 c -5.825,9.38 -15.848,13.91 -25.549,13.91 -24.417,0 -30.564,-13.746 -30.564,-34.447 v -51.421 h 22.966 v 47.219 c 0,13.747 4.042,20.536 14.716,20.536 12.449,0 17.788,-6.949 17.788,-23.934 v -43.821 h 22.959 v 83.604 l 0,0 z"
         id="path23_1_" />
      <path
         style="fill:#ffffff;fill-opacity:1"
         d="m 320.264,155.003 h 21.825 v 15.523 h 0.324 c 4.203,-10.51 15.525,-17.788 26.684,-17.788 1.619,0 3.559,0.324 5.014,0.808 v 21.347 c -2.104,-0.49 -5.5,-0.812 -8.244,-0.812 -16.818,0 -22.641,12.129 -22.641,26.843 v 37.679 h -22.962 v -83.6 z"
         id="path25_1_" />
      <path
         style="fill:#ffffff;fill-opacity:1"
         d="m 430.709,184.432 c -1.456,-9.377 -7.441,-14.389 -16.975,-14.389 -14.719,0 -19.572,14.876 -19.572,27.167 0,11.966 4.691,26.357 19.082,26.357 10.673,0 16.82,-6.788 18.273,-16.976 h 22.155 c -2.912,22.151 -18.272,34.283 -40.265,34.283 -25.228,0 -42.205,-17.789 -42.205,-42.854 0,-26.036 15.522,-45.282 42.688,-45.282 19.732,0 37.842,10.35 39.297,31.692 h -22.478 z"
         id="path27_1_" />
      <path
         style="fill:#ffffff;fill-opacity:1"
         d="m 479.058,202.384 c 0.647,14.554 7.766,21.185 20.535,21.185 9.22,0 16.66,-5.658 18.111,-10.834 h 20.215 c -6.473,19.729 -20.215,28.137 -39.131,28.137 -26.359,0 -42.693,-18.113 -42.693,-43.983 0,-25.065 17.303,-44.147 42.693,-44.147 28.461,0 42.204,23.936 40.59,49.646 h -60.32 v -0.004 z m 37.357,-14.556 c -2.104,-11.643 -7.12,-17.784 -18.278,-17.784 -14.551,0 -18.758,11.32 -19.078,17.784 h 37.356 z"
         id="path29_1_" />
    </g>
    <g
       id="text3885"
       style="font-size:40px;font-style:normal;font-weight:normal;fill:#e09c2d;fill-opacity:1;stroke:none;font-family:Arial Narrow;-inkscape-font-specification:Arial Narrow"
       transform="translate(718.64407,442.47457)">
      <path
         id="path3904"
         style="font-size:320px;font-weight:bold;fill:#e09c2d;font-family:Arial Narrow;-inkscape-font-specification:Arial Narrow Bold"
         d="m -640.64407,60.931681 37.03125,-4.375 c 4.16662,29.270883 17.81243,43.906289 40.9375,43.906249 11.45823,4e-5 20.46864,-2.994752 27.03125,-8.984374 6.56238,-5.989533 9.84362,-13.4114 9.84375,-22.265625 -1.3e-4,-5.208261 -1.14596,-9.63534 -3.4375,-13.28125 -2.29179,-3.64575 -5.78137,-6.640538 -10.46875,-8.984375 -4.68761,-2.343659 -16.04176,-6.275946 -34.0625,-11.796875 -16.14589,-4.895728 -27.9688,-10.208222 -35.46875,-15.937499 -7.50003,-5.729045 -13.46357,-13.2550793 -17.89062,-22.5781255 -4.4271,-9.3227685 -6.64064,-19.3488005 -6.64063,-30.0781245 -10e-6,-12.499819 2.83853,-23.749808 8.51563,-33.75 5.67705,-9.999788 13.51558,-17.551864 23.51562,-22.65625 9.99994,-5.103933 22.34368,-7.656013 37.03125,-7.656253 22.08322,2.4e-4 39.32279,5.989813 51.71875,17.968753 12.39568,11.979369 18.95818,29.114769 19.6875,51.40625 l -37.96875,2.03125 c -1.66679,-12.291493 -5.26053,-20.885235 -10.78125,-25.78125 -5.52094,-4.895642 -13.38551,-7.343556 -23.59375,-7.34375 -10.20841,1.94e-4 -18.07298,2.135609 -23.59375,6.40625 -5.52089,4.271017 -8.2813,9.583512 -8.28125,15.9375 -5e-5,6.250166 2.49995,11.510577 7.5,15.78125 4.99993,4.270985 16.51034,8.95848 34.53125,14.062499 19.06238,5.5209708 32.83841,11.3282567 41.32812,17.421876 8.48944,6.093868 14.97381,13.958444 19.45313,23.593749 4.47901,9.635509 6.71859,21.328206 6.71875,35.078125 -1.6e-4,19.89588 -6.11995,36.614609 -18.35938,50.156249 -12.23971,13.54167 -31.38032,20.3125 -57.42187,20.3125 -46.0417,0 -71.66668,-26.19789 -76.875,-78.593749 z" />
      <path
         id="path3906"
         style="font-size:320px;font-weight:bold;fill:#e09c2d;font-family:Arial Narrow;-inkscape-font-specification:Arial Narrow Bold"
         d="m -456.26907,-93.599571 69.21875,0 c 17.49989,2.3e-4 30.703,1.953355 39.60937,5.859378 8.90612,3.906469 17.10923,10.495004 24.60938,19.765625 7.49984,9.271027 13.38525,21.302265 17.65625,36.09375 4.27066,14.791819 6.40607,33.177217 6.40625,55.156249 -1.8e-4,19.79176 -2.23976,37.005284 -6.71875,51.640625 -4.47933,14.635463 -10.15641,26.223994 -17.03125,34.765624 -6.87515,8.54169 -15.18243,14.97397 -24.92188,19.29688 -9.7397,4.32292 -22.26573,6.48437 -37.57812,6.48437 l -71.25,0 z m 37.8125,38.750003 0,151.718749 28.4375,0 c 12.1874,3.9e-5 21.01552,-1.145793 26.48437,-3.4375 5.46864,-2.291622 9.9478,-5.75516 13.4375,-10.390625 3.48946,-4.635359 6.38008,-11.95306 8.67188,-21.953125 2.29153,-9.999915 3.43736,-23.176985 3.4375,-39.531249 -1.4e-4,-16.9790363 -1.17201,-30.36444 -3.51563,-40.15625 -2.34388,-9.791503 -5.98971,-17.499829 -10.9375,-23.125 -4.94803,-5.624818 -10.96365,-9.322731 -18.04687,-11.09375 -5.3126,-1.353978 -15.57301,-2.03106 -30.78125,-2.03125 z" />
      <path
         id="path3908"
         style="font-size:320px;font-weight:bold;fill:#e09c2d;font-family:Arial Narrow;-inkscape-font-specification:Arial Narrow Bold"
         d="m -266.26907,135.46293 0,-229.062501 37.8125,0 0,101.718752 76.71875,-101.718752 51.09375,0 -70.78125,89.218752 74.53125,139.843749 -49.0625,0 -51.71875,-107.499999 -30.78125,38.28125 0,69.218749 z" />
    </g>
  </g>
</svg>
